<?xml version="1.0" standalone="no"?>
<!DOCTYPE svg PUBLIC "-//W3C//DTD SVG 20010904//EN"
 "http://www.w3.org/TR/2001/REC-SVG-20010904/DTD/svg10.dtd">
<svg version="1.0" xmlns="http://www.w3.org/2000/svg"
 width="600.000000pt" height="600.000000pt" viewBox="0 0 600.000000 600.000000"
 preserveAspectRatio="xMidYMid meet">

<g transform="translate(0.000000,600.000000) scale(0.100000,-0.100000)"
fill="#000000" stroke="none">
<path d="M0 3000 l0 -3000 3000 0 3000 0 0 3000 0 3000 -3000 0 -3000 0 0
-3000z m3830 343 l0 -338 122 -213 c135 -235 174 -282 284 -336 157 -77 362
-21 402 111 16 53 15 86 -2 127 -30 72 -93 104 -283 145 -122 26 -185 55 -231
105 -100 108 -87 283 29 391 57 53 98 73 181 86 114 18 262 -28 337 -105 l34
-35 -26 -40 -26 -39 -38 36 c-92 87 -243 114 -346 63 -121 -59 -154 -200 -66
-283 41 -39 95 -59 249 -93 105 -23 183 -60 229 -110 48 -52 66 -102 65 -185
-1 -171 -129 -297 -314 -308 -96 -6 -164 9 -255 57 -103 53 -175 131 -268 292
-298 510 -303 517 -435 581 -64 31 -72 33 -182 33 -108 0 -119 -2 -180 -31
-110 -53 -187 -134 -228 -240 l-19 -48 -17 27 c-51 85 -49 73 -20 128 56 103
172 197 295 240 91 33 247 33 339 0 83 -29 162 -80 223 -144 l47 -51 0 257 0
257 50 0 50 0 0 -337z m-2094 32 c72 -21 140 -69 173 -120 l28 -45 26 39 c34
51 97 94 178 121 129 44 299 8 386 -82 17 -18 68 -98 113 -178 234 -415 296
-517 346 -567 171 -172 437 -172 612 0 49 48 112 152 112 184 0 26 16 12 43
-40 l28 -53 -28 -50 c-38 -68 -136 -163 -209 -201 -211 -111 -462 -75 -629 92
-51 50 -91 113 -244 380 -100 176 -194 335 -208 353 -32 42 -107 80 -176 88
-109 13 -219 -44 -270 -140 -21 -40 -22 -52 -25 -438 l-3 -398 -49 0 -50 0 0
365 c0 225 -4 383 -11 415 -33 154 -221 240 -374 171 -65 -29 -93 -55 -121
-116 -24 -50 -24 -51 -24 -442 l0 -393 -56 0 -55 0 3 403 3 402 26 55 c32 69
79 123 133 155 88 51 226 69 322 40z m848 -606 l46 -82 0 -183 0 -184 -55 0
-55 0 0 271 c0 155 4 268 9 265 5 -3 30 -42 55 -87z"/>
</g>
</svg>
